<svg id="Layer_1" enable-background="new 0 0 512 512" height="512" viewBox="0 0 512 512" width="512" xmlns="http://www.w3.org/2000/svg"><path d="m497 482h-71.048c31.202-15.862 53.915-40.103 53.915-77.15 0-73.706-89.443-96.719-157.083-103.899 70.332-29.195 96.939-72.672 84.69-118.394-8.508-31.752-32.635-52.956-71.319-59.879 12.861-13.077 19.791-28.898 19.791-45.717-.001-50.827-57.235-76.961-102.637-76.961-45.065 0-102.635 25.861-102.635 76.961 0 30.48 20.61 52.09 46.904 64.504-80.671 29.102-111.423 75.194-98.425 123.711 4.868 18.169 15.76 34.317 33.457 45.653-52.37 13.312-100.477 40.104-100.477 94.021 0 37.051 22.604 61.291 53.677 77.15h-70.81c-8.284 0-15 6.716-15 15s6.716 15 15 15h482c8.284 0 15-6.716 15-15s-6.716-15-15-15zm-316.326-405.039c0-25.456 33.263-46.961 72.635-46.961s72.636 21.506 72.636 46.961c0 25.459-33.263 46.969-72.636 46.969s-72.635-21.509-72.635-46.969zm-52.544 180.451c-11.682-43.603 36.535-77.431 108.27-96.65 45.029-12.065 127.525-24.811 142.095 29.56 11.748 43.852-37.077 77.574-108.27 96.649-121.495 32.561-138.833-17.386-142.095-29.559zm-65.997 147.438c0-48.309 72.474-77.15 193.867-77.15s193.867 28.841 193.867 77.15-72.474 77.15-193.867 77.15-193.867-28.841-193.867-77.15z"/></svg>