<svg id="Capa_1" enable-background="new 0 0 512.046 512.046" height="512" viewBox="0 0 512.046 512.046" width="512" xmlns="http://www.w3.org/2000/svg"><g><path d="m345.341 131.611h-178.635v-42.786c0-39.857 32.31-72.167 72.167-72.167h34.301c39.857 0 72.167 32.31 72.167 72.167z" fill="#da4a54"/><path d="m273.174 16.657h-24.112c39.857 0 72.167 32.31 72.167 72.167v42.787h24.112v-42.786c0-39.857-32.31-72.168-72.167-72.168z" fill="#d82e3d"/><g><path d="m183.333 376.48v128.065h145.38v-128.065c0-26.449 16.699-48.988 40.127-57.659-18.167-19.595-44.126-31.864-72.954-31.864h-79.725c-28.829 0-54.788 12.269-72.954 31.864 23.428 8.671 40.126 31.21 40.126 57.659z" fill="#da4a54"/></g><g><path d="m153.333 376.48 2.588 96.425 27.412 31.64h145.38l26.754-28.832 3.246-99.233c0-26.449-13.301-48.988 10.127-57.659-18.167-19.595-44.126-31.864-72.954-31.864h-79.725c-28.829 0-54.788 12.269-72.954 31.864 23.428 8.671 10.126 31.21 10.126 57.659z" fill="#da4a54"/></g><path d="m354.984 340.647c-.326-9.861 2.275-17.54 13.856-21.826-18.733-20.207-44.961-31.864-72.954-31.864h-29.227c38.426 0 71.759 21.792 88.325 53.69z" fill="#d82e3d"/><path d="m183.333 376.48v128.07h-46.84c-10.94 0-19.8-8.87-19.8-19.81v-98.31c0-26.11 10.05-49.87 26.51-67.61 23.43 8.67 40.13 31.21 40.13 57.66z" fill="#d5985c"/><path d="m395.353 386.43v98.31c0 10.94-8.86 19.81-19.8 19.81h-46.84v-128.07c0-26.45 16.7-48.99 40.13-57.66 16.46 17.74 26.51 41.5 26.51 67.61z" fill="#d5985c"/><path d="m368.84 318.821c-7.344 2.718-14.025 6.799-19.739 11.936 10.748 15.886 17.026 35.044 17.026 55.669v98.319c0 10.936-8.865 19.801-19.801 19.801h29.227c7.143 0 13.383-3.794 16.866-9.465 1.849-3.013 2.934-6.546 2.934-10.341v-98.31c0-24.536-8.96-48.652-26.513-67.609z" fill="#c38959"/><path d="m256.023 340.911c-16.994 0-30.77-13.776-30.77-30.77v-57.144h61.54v57.144c0 16.993-13.776 30.77-30.77 30.77z" fill="#b17a4a"/><path d="m256.023 302.247c-49.329 0-89.318-39.989-89.318-89.318v-81.318h178.636v81.318c0 49.329-39.989 89.318-89.318 89.318z" fill="#d5985c"/><path d="m177.932 131.611c-3.744.736-7.487 1.517-11.226 2.359v30.813c45.828-11.149 92.1-13.674 138.131-7.588 9.377 1.24 16.393 9.227 16.393 18.686v37.047c0 45.24-33.635 82.618-77.262 88.505 3.944.532 7.967.812 12.056.812 49.329 0 89.318-39.989 89.318-89.318v-81.318h-167.41z" fill="#c38959"/><g fill="#b17a4a"><path d="m166.706 216.929h-7.406c-11.217 0-20.309-9.093-20.309-20.309v-4.213c0-11.217 9.093-20.309 20.309-20.309h7.405v44.831z"/><path d="m345.341 216.929h7.405c11.217 0 20.309-9.093 20.309-20.309v-4.213c0-11.217-9.093-20.309-20.309-20.309h-7.405z"/></g><g><path d="m157.587 151.32c-6.676 0-12.767-4.49-14.513-11.255-2.071-8.021 2.753-16.202 10.774-18.272 67.798-17.504 136.553-17.504 204.351 0 8.021 2.07 12.846 10.252 10.774 18.272-2.069 8.021-10.249 12.848-18.272 10.774-62.824-16.217-126.532-16.217-189.355 0-1.257.326-2.518.481-3.759.481z" fill="#f6f1f1"/></g><path d="m358.199 121.793c-4.166-1.076-8.336-2.083-12.509-3.027 2.663 7.699 3.754 17.878 2.563 27.946-.137 1.163-.304 2.293-.493 3.393.98.245 1.961.482 2.941.735 8.023 2.073 16.203-2.753 18.272-10.774 2.072-8.021-2.753-16.203-10.774-18.273z" fill="#eadfda"/><g><path d="m256.023 85.143c4.143 0 7.5-3.357 7.5-7.5v-4.179h4.18c4.143 0 7.5-3.357 7.5-7.5s-3.357-7.5-7.5-7.5h-4.18v-4.18c0-4.143-3.357-7.5-7.5-7.5s-7.5 3.357-7.5 7.5v4.18h-4.179c-4.143 0-7.5 3.357-7.5 7.5s3.357 7.5 7.5 7.5h4.179v4.179c0 4.142 3.357 7.5 7.5 7.5z"/><path d="m322.872 282.901c15.843-15.143 26.564-35.598 29.283-58.472h.591c15.334 0 27.81-12.476 27.81-27.81v-4.213c0-15.302-12.424-27.756-27.715-27.807v-5.84c.551.041 1.101.067 1.65.067 9.872 0 19.096-6.625 21.743-16.886 3.11-12.041-4.12-24.301-16.161-27.409-2.41-.622-4.821-1.217-7.232-1.796v-23.911c0-9.22-1.572-18.276-4.675-26.917-1.399-3.899-5.698-5.923-9.593-4.524-3.898 1.399-5.924 5.694-4.524 9.593 2.516 7.01 3.792 14.361 3.792 21.849v20.602c-54.389-11.003-109.248-11.003-163.636 0v-20.603c0-35.657 29.01-64.667 64.667-64.667h34.302c17.79 0 34.377 7.093 46.706 19.972 2.865 2.992 7.612 3.095 10.604.231s3.096-7.612.231-10.604c-15.186-15.862-35.621-24.599-57.542-24.599h-9.65v-1.657c0-4.143-3.357-7.5-7.5-7.5s-7.5 3.357-7.5 7.5v1.657h-9.651c-43.929 0-79.667 35.738-79.667 79.667v23.911c-2.412.579-4.822 1.174-7.231 1.796-12.04 3.107-19.273 15.367-16.162 27.408 2.696 10.446 12.472 17.611 23.394 16.817v5.843c-15.291.052-27.715 12.505-27.715 27.807v4.213c0 15.334 12.476 27.81 27.81 27.81h.597c.602 5.08 1.589 10.099 2.983 15.007.938 3.3 3.942 5.452 7.211 5.452.679 0 1.368-.093 2.054-.287 3.984-1.132 6.297-5.28 5.165-9.265-2.061-7.25-3.104-14.789-3.104-22.407 0-7.094 0-49.089 0-57.488 54.348-12.342 109.288-12.343 163.636 0v57.488c0 45.115-36.703 81.818-81.817 81.818-26.493 0-51.469-12.926-66.808-34.576-2.396-3.38-7.076-4.179-10.456-1.784-3.38 2.396-4.179 7.076-1.784 10.456 3.625 5.116 7.711 9.812 12.169 14.065-45.949 11.956-79.953 53.742-79.953 103.517v98.319c0 15.055 12.247 27.302 27.302 27.302h239.06c15.054 0 27.301-12.247 27.301-27.302v-98.319c-.003-49.078-33.35-91.404-79.985-103.524zm42.684-90.495v4.213c0 7.032-5.695 12.759-12.715 12.81v-29.832c7.02.05 12.715 5.777 12.715 12.809zm-219.065 4.213v-4.213c0-7.032 5.695-12.759 12.715-12.81v29.832c-7.02-.05-12.715-5.777-12.715-12.809zm12.976-53.04c-4.04 1.045-8.102-1.398-9.132-5.389-1.036-4.012 1.372-8.099 5.388-9.136 34.465-8.898 68.014-12.887 100.3-12.887 33.572 0 67.084 4.312 100.302 12.887 4.012 1.036 6.424 5.12 5.386 9.138-1.032 4.003-5.103 6.423-9.135 5.386-64.069-16.539-129.038-16.538-193.109.001zm96.556 251.672c2.302 0 4.175 1.873 4.175 4.175s-1.873 4.174-4.175 4.174-4.174-1.872-4.174-4.174 1.872-4.175 4.174-4.175zm2.295-15h-4.589c-24.683 0-44.764-20.081-44.764-44.764v-37.975c2.853 1.587 5.789 3.022 8.788 4.315v8.314c0 21.103 17.168 38.271 38.271 38.271 21.102 0 38.27-17.168 38.27-38.271v-8.286c3.011-1.301 5.943-2.751 8.788-4.34v37.973c0 24.682-20.082 44.763-44.764 44.763zm20.975-73.338v3.227c0 12.831-10.438 23.271-23.27 23.271s-23.271-10.439-23.271-23.271v-3.247c7.539 1.874 15.347 2.854 23.271 2.854 8.021 0 15.813-.987 23.27-2.834zm-155.101 177.831v-98.319c0-21.495 7.456-42.116 21.076-58.576 18.468 8.91 30.566 27.853 30.566 48.632v120.565h-39.34c-6.784 0-12.302-5.519-12.302-12.302zm263.662 0c0 6.783-5.519 12.302-12.301 12.302h-39.34v-38.874c0-4.143-3.357-7.5-7.5-7.5s-7.5 3.357-7.5 7.5v38.874h-130.38v-120.566c0-24.839-13.532-47.628-34.602-59.787 10.917-9.395 23.822-16.069 37.733-19.517v38.311c0 27.488 18.659 50.686 43.972 57.63-1.917 5.479-.741 9.258-1.088 29.367 0 4.143 3.357 7.5 7.5 7.5s7.5-3.357 7.5-7.5v-4.356c1.346.3 2.739.471 4.174.471 10.573 0 19.175-8.602 19.175-19.174 0-2.212-.396-4.329-1.088-6.308 25.313-6.945 43.972-30.143 43.972-57.63v-38.311c13.911 3.448 26.816 10.122 37.733 19.517-21.069 12.16-34.601 34.948-34.601 59.787v51.704c0 4.143 3.357 7.5 7.5 7.5s7.5-3.357 7.5-7.5v-51.704c0-20.778 12.098-39.721 30.566-48.631 13.619 16.459 21.075 37.081 21.075 58.576z"/><path d="m304.17 210.978v-9.069c0-4.143-3.357-7.5-7.5-7.5s-7.5 3.357-7.5 7.5v9.069c0 4.143 3.357 7.5 7.5 7.5s7.5-3.358 7.5-7.5z"/><path d="m222.876 210.978v-9.069c0-4.143-3.357-7.5-7.5-7.5s-7.5 3.357-7.5 7.5v9.069c0 4.143 3.357 7.5 7.5 7.5s7.5-3.358 7.5-7.5z"/><path d="m256.023 260.933c7.205 0 14.41-2.658 21.415-7.974 3.3-2.505 3.944-7.209 1.44-10.509-2.505-3.3-7.21-3.942-10.509-1.44-8.538 6.48-16.152 6.482-24.692 0-3.299-2.502-8.004-1.857-10.509 1.44-2.504 3.3-1.859 8.004 1.44 10.509 7.006 5.315 14.211 7.974 21.415 7.974z"/></g></g></svg>