<svg id="Layer_5" enable-background="new 0 0 64 64" height="512" viewBox="0 0 64 64" width="512" xmlns="http://www.w3.org/2000/svg"><g><g><g><path d="m13 46h38v16h-38z" fill="#ffeaa7"/></g><g><path d="m44 29.2c0 .53-.04 1.06-.13 1.58l-.03.2-1.84 11.02h-20l-1.84-11.02-.03-.2c-.09-.52-.13-1.05-.13-1.58 0-2.06.66-4.06 1.88-5.71.02-.02.03-.04.04-.05l1.08-1.44h2 14 2l1.08 1.44c.01.02.02.03.04.05 1.22 1.65 1.88 3.65 1.88 5.71z" fill="#fcd770"/></g><g><path d="m58 14.46v4.54c0 5.52-4.48 10-10 10-.17 0-.34-.03-.5-.07.32-.57.5-1.23.5-1.93 0-.69-.18-1.34-.49-1.91.19-.06.4-.09.6-.09 3.25 0 5.89-2.64 5.89-5.89v-4.65c.59.34 1.27.54 2 .54s1.41-.2 2-.54z" fill="#e6e9ed"/></g><g><path d="m22.11 45.34c.32.21.55.49.7.82-.47.2-.9.49-1.28.87-.55.54-.91 1.2-1.07 1.9-.2-.06-.39-.15-.57-.27-.23-.16-1.08-1.18-2.1-2.67-.79-1.12-1.67-2.52-2.46-3.99-1.28-2.38-2.33-4.98-2.33-7 0-3 1.68-5.82 3.02-7.58.16 1.52 1.17 2.79 2.56 3.31-.81 1.23-1.58 2.79-1.58 4.27 0 1.35 1.29 4.5 2.67 7 .88 1.58 1.79 2.91 2.44 3.34z" fill="#e6e9ed"/></g><g><path d="m47.5 28.93c-.68 1.24-1.99 2.07-3.5 2.07-.06 0-.11-.01-.16-.02l.03-.2c.09-.52.13-1.05.13-1.58 0-2.06-.66-4.06-1.88-5.71.56-.3 1.19-.49 1.88-.49 1.52 0 2.83.84 3.51 2.09.31.57.49 1.22.49 1.91 0 .7-.18 1.36-.5 1.93z" fill="#ccd1d9"/></g><g><path d="m20 29.2c0 .53.04 1.06.13 1.58l.03.2c-.05.01-.1.02-.16.02-.5 0-.98-.09-1.42-.27-1.39-.52-2.4-1.79-2.56-3.31 0-.01 0-.01 0-.01-.01-.14-.02-.27-.02-.41 0-2.21 1.79-4 4-4 .69 0 1.32.19 1.88.49-1.22 1.65-1.88 3.65-1.88 5.71z" fill="#ccd1d9"/></g><g><path d="m40 28v4c0 1.1-.9 2-2 2h-12c-1.1 0-2-.9-2-2v-4c0-1.1.9-2 2-2h12c1.1 0 2 .9 2 2z" fill="#69d6f4"/></g><g><path d="m47 10v4c0 1.1-.9 2-2 2h-2v-8h2c1.1 0 2 .9 2 2z" fill="#e6e9ed"/></g><g><path d="m43 16v2c0 2.21-1.79 4-4 4h-14c-2.21 0-4-1.79-4-4v-2-8-2c0-2.21 1.79-4 4-4h2l3 4h4l3-4h2c2.21 0 4 1.79 4 4v2z" fill="#e6e9ed"/></g><g><path d="m21 8v8h-2c-1.1 0-2-.9-2-2v-4c0-1.1.9-2 2-2z" fill="#e6e9ed"/></g><g><path d="m37 2-3 4h-4l-3-4z" fill="#b4dd7f"/></g><g><circle cx="37" cy="10" fill="#838f9b" r="2"/></g><g><circle cx="27" cy="10" fill="#838f9b" r="2"/></g></g><g><path d="m63 41h-19.82l1.512-9.07c1.34-.188 2.504-.9 3.285-1.933.008 0 .015.003.023.003 6.065 0 11-4.935 11-11v-4.026c1.207-.914 2-2.348 2-3.974v-.162l-1.051-3.154-1.897.633.945 2.834c-.08 1.584-1.393 2.849-2.997 2.849s-2.917-1.265-2.996-2.849l.945-2.834-1.897-.633-1.052 3.154v.162c0 1.627.793 3.061 2 3.974v4.137c0 2.696-2.193 4.889-4.888 4.889-.043 0-.087.008-.13.009-.913-1.212-2.351-2.009-3.982-2.009-.526 0-1.044.096-1.549.268l-.308-.411c1.123-.918 1.857-2.296 1.857-3.857v-1h1c1.654 0 3-1.346 3-3v-4c0-1.654-1.346-3-3-3h-1v-1c0-2.757-2.243-5-5-5h-14c-2.757 0-5 2.243-5 5v1h-1c-1.654 0-3 1.346-3 3v4c0 1.654 1.346 3 3 3h1v1c0 1.561.734 2.939 1.858 3.857l-.308.411c-.506-.172-1.024-.268-1.55-.268-2.757 0-5 2.243-5 5 0 .036.01.07.011.105-1.426 1.95-3.011 4.802-3.011 7.895 0 1.774.714 3.913 1.695 6h-12.695v2h13.716c.384.694.783 1.368 1.181 2h-3.897v18h40v-18h-26.513c-.748-.173-1.522-.173-2.27.001-.166-.184-.344-.358-.553-.497-.332-.221-.772-.774-1.247-1.504h41.583zm-18-32c.551 0 1 .449 1 1v4c0 .551-.449 1-1 1h-1v-6zm-26 6c-.551 0-1-.449-1-1v-4c0-.551.449-1 1-1h1v6zm36 4.112v-3.213c.323.066.658.101 1 .101s.677-.035 1-.101v3.101c0 4.657-3.557 8.499-8.096 8.954.06-.309.096-.627.096-.954 0-.359-.042-.708-.114-1.046 3.435-.387 6.114-3.306 6.114-6.842zm-8 7.888c0 1.322-.864 2.433-2.026 2.833.012-.21.026-.419.026-.628 0-1.801-.477-3.587-1.348-5.159.116-.015.231-.046.348-.046 1.654 0 3 1.346 3 3zm-12-24-1.5 2h-3l-1.5-2zm-13 3c0-1.654 1.346-3 3-3h1.5l3 4h5l3-4h1.5c1.654 0 3 1.346 3 3v12c0 1.654-1.346 3-3 3h-14c-1.654 0-3-1.346-3-3zm17 17h1.5l.777 1.037c.012.016.022.033.033.049l.005.007c1.086 1.472 1.685 3.283 1.685 5.112 0 .472-.04.948-.117 1.416l-1.73 10.379h-18.306l-1.73-10.379c-.077-.468-.117-.944-.117-1.416 0-1.587.452-3.16 1.28-4.51l.451-.669.769-1.026h1.5zm-19 1c.117 0 .232.031.349.046-.872 1.572-1.349 3.357-1.349 5.159 0 .206.014.413.026.619-1.175-.407-2.026-1.513-2.026-2.824 0-1.654 1.346-3 3-3zm6.366 23.628 1.336 2.673 1.298-.649v1.348h2v-2h-1.712l-1-2h21.712v14h-36v-14h3.241c.622.87 1.172 1.558 1.577 2h-1.818v2h2v-1.806c.134.136.252.246.334.301.017.011.036.019.053.03-.091 1.388.372 2.806 1.43 3.865l.115.115 2.974 1.487.895-1.789-2.673-1.336c-1.064-1.176-1.03-3 .104-4.134 1.134-1.135 2.958-1.169 4.134-.105zm-5.548-1.31c-.318.318-.565.677-.78 1.05-1.578-1.904-6.038-8.426-6.038-12.368 0-1.958.811-3.855 1.748-5.403.371.606.855 1.134 1.441 1.534-.776 1.396-1.189 2.698-1.189 3.869 0 2.464 3.306 9.217 5.278 10.943-.156.122-.317.232-.46.375zm-2.818-11.318c0-.868.374-1.933 1.049-3.096.084.016.174.014.259.026l1.512 9.07h-.562c-1.181-2.244-2.258-4.903-2.258-6z"/><path d="m17 57h2v2h-2z"/><path d="m21 57h2v2h-2z"/><path d="m41 57h2v2h-2z"/><path d="m37 57h2v2h-2z"/><path d="m29 57h2v2h-2z"/><path d="m25 57h2v2h-2z"/><path d="m33 57h2v2h-2z"/><path d="m45 57h2v2h-2z"/><path d="m17 53h2v2h-2z"/><path d="m29 53h2v2h-2z"/><path d="m25 53h2v2h-2z"/><path d="m45 53h2v2h-2z"/><path d="m37 53h2v2h-2z"/><path d="m33 53h2v2h-2z"/><path d="m41 53h2v2h-2z"/><path d="m33 49h2v2h-2z"/><path d="m41 49h2v2h-2z"/><path d="m37 49h2v2h-2z"/><path d="m45 49h2v2h-2z"/><path d="m37 13c1.654 0 3-1.346 3-3s-1.346-3-3-3-3 1.346-3 3 1.346 3 3 3zm0-4c.551 0 1 .449 1 1s-.449 1-1 1-1-.449-1-1 .449-1 1-1z"/><path d="m27 13c1.654 0 3-1.346 3-3s-1.346-3-3-3-3 1.346-3 3 1.346 3 3 3zm0-4c.551 0 1 .449 1 1s-.449 1-1 1-1-.449-1-1 .449-1 1-1z"/><path d="m35.973 17-7.973-.027v-1.973h-2v1.973c0 1.117.91 2.027 2.027 2.027h7.945c1.118 0 2.028-.91 2.028-2.027v-1.973h-2z"/><path d="m23 32c0 1.654 1.346 3 3 3h12c1.654 0 3-1.346 3-3v-4c0-1.654-1.346-3-3-3h-12c-1.654 0-3 1.346-3 3zm2-4c0-.551.449-1 1-1h12c.551 0 1 .449 1 1v4c0 .551-.449 1-1 1h-12c-.551 0-1-.449-1-1z"/><path d="m37 37h2v2h-2z"/><path d="m33 37h2v2h-2z"/><path d="m25 37h2v2h-2z"/><path d="m29 37h2v2h-2z"/></g></g></svg>